<svg version="1.2" preserveAspectRatio="xMidYMid meet" height="90" viewBox="0 0 224.87999 67.499998" zoomAndPan="magnify" width="300" xmlns:xlink="http://www.w3.org/1999/xlink" xmlns="http://www.w3.org/2000/svg"><defs></defs><g id="517d22fe82"><g style="fill:#000000;fill-opacity:1;"><g transform="translate(7.921242, 50.240346)"><path d="M 28.78125 -5.3125 C 29.113281 -4.1875 29.421875 -3.257812 29.703125 -2.53125 C 29.984375 -1.800781 30.367188 -0.957031 30.859375 0 L 24.65625 0 C 24.625 -1.125 24.515625 -2.023438 24.328125 -2.703125 C 24.148438 -3.378906 23.914062 -4.25 23.625 -5.3125 L 21.046875 -14.4375 L 7.734375 -14.4375 L 5.0625 -5.0625 C 4.800781 -4.132812 4.566406 -3.320312 4.359375 -2.625 C 4.160156 -1.9375 4.015625 -1.0625 3.921875 0 L 2.484375 0 C 3.046875 -1.09375 3.414062 -1.96875 3.59375 -2.625 C 3.78125 -3.289062 4.003906 -4.085938 4.265625 -5.015625 L 13.34375 -37.015625 C 13.476562 -37.546875 13.535156 -37.992188 13.515625 -38.359375 C 13.503906 -38.722656 13.414062 -39.171875 13.25 -39.703125 L 19.109375 -39.703125 Z M 7.9375 -15.234375 L 20.84375 -15.234375 L 14.390625 -38.015625 Z M 7.9375 -15.234375" style="stroke:none"></path></g></g><g style="fill:#000000;fill-opacity:1;"><g transform="translate(41.269026, 50.240346)"><path d="M 3.46875 0 C 3.570312 -1.382812 3.65625 -2.582031 3.71875 -3.59375 C 3.789062 -4.601562 3.832031 -5.585938 3.84375 -6.546875 C 3.863281 -7.503906 3.875 -8.582031 3.875 -9.78125 L 3.875 -29.921875 C 3.875 -31.148438 3.863281 -32.234375 3.84375 -33.171875 C 3.832031 -34.117188 3.789062 -35.09375 3.71875 -36.09375 C 3.65625 -37.101562 3.570312 -38.304688 3.46875 -39.703125 L 8.9375 -39.703125 L 24.46875 -5.609375 L 39.25 -39.703125 L 44.359375 -39.703125 C 44.265625 -38.304688 44.179688 -37.101562 44.109375 -36.09375 C 44.046875 -35.09375 44.003906 -34.117188 43.984375 -33.171875 C 43.972656 -32.234375 43.96875 -31.148438 43.96875 -29.921875 L 43.96875 -9.78125 C 43.96875 -8.582031 43.972656 -7.503906 43.984375 -6.546875 C 44.003906 -5.585938 44.046875 -4.601562 44.109375 -3.59375 C 44.179688 -2.582031 44.265625 -1.382812 44.359375 0 L 38.703125 0 C 38.804688 -1.382812 38.878906 -2.582031 38.921875 -3.59375 C 38.972656 -4.601562 39.007812 -5.585938 39.03125 -6.546875 C 39.050781 -7.503906 39.0625 -8.582031 39.0625 -9.78125 L 39.0625 -37.3125 L 22.734375 1 L 21.828125 1 L 4.671875 -37.171875 L 4.671875 -9.78125 C 4.671875 -8.582031 4.675781 -7.503906 4.6875 -6.546875 C 4.707031 -5.585938 4.75 -4.601562 4.8125 -3.59375 C 4.875 -2.582031 4.957031 -1.382812 5.0625 0 Z M 3.46875 0" style="stroke:none"></path></g></g><g style="fill:#000000;fill-opacity:1;"><g transform="translate(89.107212, 50.240346)"><path d="M 8.734375 -29.328125 C 7.179688 -30.285156 5.847656 -31.003906 4.734375 -31.484375 C 3.628906 -31.960938 2.675781 -32.390625 1.875 -32.765625 C 1.082031 -33.148438 0.375 -33.660156 -0.25 -34.296875 C -0.539062 -34.617188 -0.738281 -35.007812 -0.84375 -35.46875 C -0.945312 -35.9375 -0.875 -36.359375 -0.625 -36.734375 C -0.375 -37.117188 0.0820312 -37.347656 0.75 -37.421875 L 9.03125 -29.625 Z M 2.484375 -23.421875 L 7.59375 -23.421875 C 7.394531 -21.566406 7.28125 -19.9375 7.25 -18.53125 C 7.21875 -17.125 7.203125 -15.644531 7.203125 -14.09375 L 7.203125 -9.28125 C 7.203125 -7.757812 7.21875 -6.296875 7.25 -4.890625 C 7.28125 -3.484375 7.394531 -1.851562 7.59375 0 L 2.484375 0 C 2.679688 -1.851562 2.796875 -3.484375 2.828125 -4.890625 C 2.859375 -6.296875 2.875 -7.757812 2.875 -9.28125 L 2.875 -14.09375 C 2.875 -15.644531 2.859375 -17.125 2.828125 -18.53125 C 2.796875 -19.9375 2.679688 -21.566406 2.484375 -23.421875 Z M 2.484375 -23.421875" style="stroke:none"></path></g></g><g style="fill:#000000;fill-opacity:1;"><g transform="translate(99.181017, 50.240346)"><path d="M 25.15625 1 C 21.976562 1 19.039062 0.488281 16.34375 -0.53125 C 13.65625 -1.5625 11.304688 -3.003906 9.296875 -4.859375 C 7.296875 -6.710938 5.742188 -8.910156 4.640625 -11.453125 C 3.535156 -14.003906 2.984375 -16.800781 2.984375 -19.84375 C 2.984375 -22.894531 3.535156 -25.691406 4.640625 -28.234375 C 5.742188 -30.785156 7.296875 -32.984375 9.296875 -34.828125 C 11.304688 -36.679688 13.65625 -38.117188 16.34375 -39.140625 C 19.039062 -40.171875 21.976562 -40.6875 25.15625 -40.6875 C 28.332031 -40.6875 31.269531 -40.171875 33.96875 -39.140625 C 36.664062 -38.117188 39.019531 -36.679688 41.03125 -34.828125 C 43.050781 -32.984375 44.613281 -30.785156 45.71875 -28.234375 C 46.832031 -25.691406 47.390625 -22.894531 47.390625 -19.84375 C 47.390625 -16.800781 46.832031 -14.003906 45.71875 -11.453125 C 44.613281 -8.910156 43.050781 -6.710938 41.03125 -4.859375 C 39.019531 -3.003906 36.664062 -1.5625 33.96875 -0.53125 C 31.269531 0.488281 28.332031 1 25.15625 1 Z M 25.15625 0.203125 C 27.800781 0.203125 30.15625 -0.34375 32.21875 -1.4375 C 34.289062 -2.53125 36.0625 -4.019531 37.53125 -5.90625 C 39.007812 -7.789062 40.128906 -9.929688 40.890625 -12.328125 C 41.648438 -14.722656 42.03125 -17.226562 42.03125 -19.84375 C 42.03125 -22.457031 41.648438 -24.960938 40.890625 -27.359375 C 40.128906 -29.765625 39.007812 -31.910156 37.53125 -33.796875 C 36.0625 -35.679688 34.289062 -37.164062 32.21875 -38.25 C 30.15625 -39.34375 27.800781 -39.890625 25.15625 -39.890625 C 22.539062 -39.890625 20.191406 -39.34375 18.109375 -38.25 C 16.023438 -37.164062 14.253906 -35.679688 12.796875 -33.796875 C 11.347656 -31.910156 10.242188 -29.765625 9.484375 -27.359375 C 8.722656 -24.960938 8.34375 -22.457031 8.34375 -19.84375 C 8.34375 -17.226562 8.722656 -14.722656 9.484375 -12.328125 C 10.242188 -9.929688 11.347656 -7.789062 12.796875 -5.90625 C 14.253906 -4.019531 16.023438 -2.53125 18.109375 -1.4375 C 20.191406 -0.34375 22.539062 0.203125 25.15625 0.203125 Z M 25.15625 0.203125" style="stroke:none"></path></g></g><g style="fill:#000000;fill-opacity:1;"><g transform="translate(149.550051, 50.240346)"><path d="M 26.453125 -9.421875 C 27.304688 -7.210938 28.15625 -5.476562 29 -4.21875 C 29.84375 -2.957031 30.8125 -2.0625 31.90625 -1.53125 C 33 -1.007812 34.304688 -0.75 35.828125 -0.75 L 35.828125 0 C 33.117188 0 30.84375 -0.269531 29 -0.8125 C 27.164062 -1.363281 25.660156 -2.300781 24.484375 -3.625 C 23.316406 -4.945312 22.316406 -6.765625 21.484375 -9.078125 C 20.554688 -11.691406 19.570312 -13.660156 18.53125 -14.984375 C 17.488281 -16.304688 16.320312 -17.195312 15.03125 -17.65625 C 13.738281 -18.125 12.234375 -18.359375 10.515625 -18.359375 L 8.734375 -18.359375 L 8.734375 -9.78125 C 8.734375 -8.582031 8.738281 -7.503906 8.75 -6.546875 C 8.769531 -5.585938 8.8125 -4.601562 8.875 -3.59375 C 8.945312 -2.582031 9.03125 -1.382812 9.125 0 L 3.46875 0 C 3.570312 -1.382812 3.65625 -2.582031 3.71875 -3.59375 C 3.789062 -4.601562 3.832031 -5.585938 3.84375 -6.546875 C 3.863281 -7.503906 3.875 -8.582031 3.875 -9.78125 L 3.875 -29.921875 C 3.875 -31.148438 3.863281 -32.234375 3.84375 -33.171875 C 3.832031 -34.117188 3.789062 -35.09375 3.71875 -36.09375 C 3.65625 -37.101562 3.570312 -38.304688 3.46875 -39.703125 L 12.65625 -39.703125 C 14.875 -39.703125 16.972656 -39.539062 18.953125 -39.21875 C 20.941406 -38.90625 22.703125 -38.359375 24.234375 -37.578125 C 25.773438 -36.804688 26.984375 -35.722656 27.859375 -34.328125 C 28.734375 -32.941406 29.171875 -31.175781 29.171875 -29.03125 C 29.171875 -26.519531 28.59375 -24.523438 27.4375 -23.046875 C 26.28125 -21.578125 24.71875 -20.492188 22.75 -19.796875 C 20.78125 -19.109375 18.570312 -18.660156 16.125 -18.453125 C 18.28125 -18.054688 20.238281 -17.195312 22 -15.875 C 23.769531 -14.550781 25.253906 -12.398438 26.453125 -9.421875 Z M 8.734375 -19.15625 L 12.609375 -19.15625 C 14.054688 -19.15625 15.46875 -19.300781 16.84375 -19.59375 C 18.21875 -19.894531 19.453125 -20.410156 20.546875 -21.140625 C 21.640625 -21.867188 22.507812 -22.867188 23.15625 -24.140625 C 23.800781 -25.410156 24.125 -27.039062 24.125 -29.03125 C 24.125 -31.019531 23.800781 -32.648438 23.15625 -33.921875 C 22.507812 -35.191406 21.640625 -36.191406 20.546875 -36.921875 C 19.453125 -37.648438 18.21875 -38.160156 16.84375 -38.453125 C 15.46875 -38.753906 14.054688 -38.90625 12.609375 -38.90625 L 8.734375 -38.90625 Z M 8.734375 -19.15625" style="stroke:none"></path></g></g><g style="fill:#000000;fill-opacity:1;"><g transform="translate(187.21517, 50.240346)"><path d="M 3.46875 -39.703125 L 26.890625 -39.703125 L 24.65625 -36.921875 C 23.269531 -37.484375 21.835938 -37.90625 20.359375 -38.1875 C 18.890625 -38.46875 17.539062 -38.65625 16.3125 -38.75 C 15.09375 -38.851562 14.101562 -38.90625 13.34375 -38.90625 L 8.828125 -38.90625 L 8.828125 -21.4375 L 12.015625 -21.4375 C 13.335938 -21.4375 14.738281 -21.460938 16.21875 -21.515625 C 17.707031 -21.566406 19.613281 -21.707031 21.9375 -21.9375 L 21.9375 -20.140625 C 19.613281 -20.410156 17.707031 -20.5625 16.21875 -20.59375 C 14.738281 -20.625 13.335938 -20.640625 12.015625 -20.640625 L 8.828125 -20.640625 L 8.828125 -0.796875 L 14.390625 -0.796875 C 16.046875 -0.796875 17.566406 -0.835938 18.953125 -0.921875 C 20.347656 -1.003906 21.78125 -1.1875 23.25 -1.46875 C 24.71875 -1.75 26.378906 -2.15625 28.234375 -2.6875 L 26.796875 0 L 3.46875 0 C 3.601562 -1.382812 3.703125 -2.582031 3.765625 -3.59375 C 3.835938 -4.601562 3.878906 -5.585938 3.890625 -6.546875 C 3.910156 -7.503906 3.921875 -8.582031 3.921875 -9.78125 L 3.921875 -29.921875 C 3.921875 -31.148438 3.910156 -32.234375 3.890625 -33.171875 C 3.878906 -34.117188 3.835938 -35.09375 3.765625 -36.09375 C 3.703125 -37.101562 3.601562 -38.304688 3.46875 -39.703125 Z M 3.46875 -39.703125" style="stroke:none"></path></g></g></g></svg>